<?xml version="1.0" encoding="utf-8"?>
<!-- Generator: Adobe Illustrator 18.1.1, SVG Export Plug-In . SVG Version: 6.00 Build 0)  -->
<!DOCTYPE svg PUBLIC "-//W3C//DTD SVG 1.1//EN" "http://www.w3.org/Graphics/SVG/1.1/DTD/svg11.dtd">
<svg version="1.1" id="Layer_1" xmlns="http://www.w3.org/2000/svg" xmlns:xlink="http://www.w3.org/1999/xlink" x="0px" y="0px"
	 width="495.8px" height="519px" viewBox="0 0 495.8 519" enable-background="new 0 0 495.8 519" xml:space="preserve">
<g>
	<path fill="#010101" d="M94.3,175.1v203.6H34.8V175.1H94.3 M128.3,141.1h-34H34.8h-34v34v203.6v34h34h59.5h34v-34V175.1V141.1
		L128.3,141.1z"/>
</g>
<line fill="none" stroke="#010101" stroke-width="28" stroke-miterlimit="10" x1="64.6" y1="-12.1" x2="64.6" y2="144.7"/>
<line fill="none" stroke="#010101" stroke-width="28" stroke-miterlimit="10" x1="64.6" y1="408.2" x2="64.6" y2="516.1"/>
<g>
	<path fill="#010101" d="M461.4,153.8v168.5H402V153.8H461.4 M495.4,119.8h-34H402h-34v34v168.5v34h34h59.5h34v-34V153.8V119.8
		L495.4,119.8z"/>
</g>
<line fill="none" stroke="#010101" stroke-width="28" stroke-miterlimit="10" x1="431.7" y1="-9" x2="431.7" y2="127.6"/>
<line fill="none" stroke="#010101" stroke-width="28" stroke-miterlimit="10" x1="431.7" y1="354.9" x2="431.7" y2="519"/>
<g>
	<path fill="#010101" d="M277.6,215.5v57.8h-59.5v-57.8H277.6 M311.6,181.5h-34h-59.5h-34v34v57.8v34h34h59.5h34v-34v-57.8V181.5
		L311.6,181.5z"/>
</g>
<line fill="none" stroke="#010101" stroke-width="28" stroke-miterlimit="10" x1="247.9" y1="-9" x2="247.9" y2="200"/>
<line fill="none" stroke="#010101" stroke-width="28" stroke-miterlimit="10" x1="247.9" y1="297.4" x2="247.9" y2="519"/>
</svg>
