<?xml version="1.0" encoding="utf-8"?>
<!-- Generator: Adobe Illustrator 18.1.1, SVG Export Plug-In . SVG Version: 6.00 Build 0)  -->
<!DOCTYPE svg PUBLIC "-//W3C//DTD SVG 1.1//EN" "http://www.w3.org/Graphics/SVG/1.1/DTD/svg11.dtd">
<svg version="1.1" id="Layer_1" xmlns="http://www.w3.org/2000/svg" xmlns:xlink="http://www.w3.org/1999/xlink" x="0px" y="0px"
	 width="414.5px" height="397.5px" viewBox="-606.5 251.9 414.5 397.5" enable-background="new -606.5 251.9 414.5 397.5"
	 xml:space="preserve">
<g>
	<rect x="-571.2" y="370.9" fill="none" width="44.6" height="128.4"/>
	<rect x="-415.5" y="466.9" fill="none" width="32.3" height="96.5"/>
	<rect x="-255.4" y="338.9" fill="none" width="32.4" height="224.5"/>
	<path d="M-208.5,331.9h-15.4h-30.9v0.3h-31.6v244.7h62.8h15.1h16.4v-245H-208.5z M-223,550.4h-32.4V358.7h32.4V550.4z"/>
	<path d="M-566.8,339.3h-39.7v191.4l75.3-0.3h17.2h22.5V338.9H-502h-29.8 M-526.6,499.2h-44.6V370.4h44.6V499.2z"/>
	<path d="M-383.9,435.4h-31v0.3h-31.6v159.1h6.5v-0.3h56.4h14.1h17.4V435.4H-372H-383.9z M-383.2,563.4h-32.3v-96.5h32.3V563.4z"/>
	<rect x="-559.8" y="251.9" width="21" height="87.6"/>
	<rect x="-408.7" y="251.9" width="18.6" height="183.5"/>
	<rect x="-248.6" y="251.9" width="18.5" height="82"/>
	<path d="M-248.3,640.7l0,9.8h18.5v-73.7l-18.6,0.3C-248.4,598.7-248.4,619.5-248.3,640.7z"/>
	<path d="M-408.7,594.8v55.6h18.7v-55.9C-390,594.5-413.5,594.8-408.7,594.8z"/>
	<polygon points="-559.2,650.5 -538.2,650.5 -538.2,530.4 -559.2,530.7 	"/>
</g>
</svg>
