<?xml version="1.0" encoding="utf-8"?>
<!-- Generator: Adobe Illustrator 18.1.1, SVG Export Plug-In . SVG Version: 6.00 Build 0)  -->
<!DOCTYPE svg PUBLIC "-//W3C//DTD SVG 1.1//EN" "http://www.w3.org/Graphics/SVG/1.1/DTD/svg11.dtd">
<svg version="1.1" id="Layer_1" xmlns="http://www.w3.org/2000/svg" xmlns:xlink="http://www.w3.org/1999/xlink" x="0px" y="0px"
	 width="97px" height="77px" viewBox="0 0 97 77" enable-background="new 0 0 97 77" xml:space="preserve">
<g>
	<path fill="#898989" d="M91,70.8c0-6.5,0-16.1,0-22.7c3.3,0,2.9,0,6,0c0,9.6,0,19,0,28.9c-32.3,0-64.4,0-97,0c0-9.5,0-19.1,0-28.9
		c2.9,0,2.3,0,5.7,0c0,6.3-0.1,16.2-0.1,22.9C31.9,70.9,64.4,70.8,91,70.8z"/>
	<path fill="#898989" d="M43.5,0c3.4,0,6.2,0,9.7,0c0,13,0,26,0,39c0.5,0.3,0.9,0.5,1.4,0.8c5-5.6,10-11.3,15.5-17.4
		c2.9,3.3,4.8,5.5,6.4,7.3C67.1,39,57.6,48.5,48.1,57.8c-9.1-9.1-18.5-18.4-28.2-28.1c2.1-1.7,4.4-3.5,7.6-6.1
		c4.5,5,9.5,10.7,14.6,16.3c0.5-0.3,1-0.5,1.4-0.8C43.5,26.2,43.5,13.2,43.5,0z"/>
</g>
</svg>
