<?xml version="1.0" encoding="utf-8"?>
<!-- Generator: Adobe Illustrator 18.1.1, SVG Export Plug-In . SVG Version: 6.00 Build 0)  -->
<!DOCTYPE svg PUBLIC "-//W3C//DTD SVG 1.1//EN" "http://www.w3.org/Graphics/SVG/1.1/DTD/svg11.dtd">
<svg version="1.1" id="Layer_1" xmlns="http://www.w3.org/2000/svg" xmlns:xlink="http://www.w3.org/1999/xlink" x="0px" y="0px"
	 width="92.3px" height="98.3px" viewBox="0 0 92.3 98.3" enable-background="new 0 0 92.3 98.3" xml:space="preserve">
<g>
	<g>
		<path fill="#898989" d="M76.9,65.3V75l-58.8,0c-0.2,0.6-0.2,0.6-0.4,1.1c5.7,5.1,11.5,10.2,17.7,15.7l-7.3,6.4
			C18.8,88.9,9.4,79.4,0,70c9.1-9.1,18.4-18.5,28.1-28.2c1.7,2.1,3.5,4.4,6.1,7.6c-5.1,4.6-10.9,9.7-16.6,14.8
			c0.2,0.6,0.2,0.6,0.4,1.2L76.9,65.3z"/>
	</g>
	<path fill="#898989" d="M92.3,28.3c-9.1,9.1-18.4,18.5-28.1,28.2c-1.7-2.1-3.5-4.4-6.1-7.6c5.1-4.6,10.9-9.7,16.6-14.8
		c-0.2-0.6-0.2-0.6-0.4-1.2l-58.9,0v-9.7l58.8,0c0.2-0.6,0.2-0.6,0.4-1.1C68.9,17.1,63.2,12,56.9,6.4L64.3,0
		C73.6,9.4,83,18.9,92.3,28.3"/>
</g>
</svg>
