<?xml version="1.0" encoding="utf-8"?>
<!-- Generator: Adobe Illustrator 16.0.0, SVG Export Plug-In . SVG Version: 6.00 Build 0)  -->
<svg version="1.2" baseProfile="tiny" id="Layer_1" xmlns="http://www.w3.org/2000/svg" xmlns:xlink="http://www.w3.org/1999/xlink"
	 x="0px" y="0px" width="26px" height="20px" viewBox="0 0 26 20" xml:space="preserve">
<path fill="#89898A" d="M25.741,3.003c0,1.013-0.821,1.833-1.833,1.833H2.074c-1.013,0-1.833-0.821-1.833-1.833l0,0
	c0-1.013,0.821-1.833,1.833-1.833h21.833C24.92,1.17,25.741,1.991,25.741,3.003L25.741,3.003z"/>
<path fill="#89898A" d="M25.741,10.003c0,1.013-0.821,1.833-1.833,1.833H2.074c-1.013,0-1.833-0.821-1.833-1.833l0,0
	c0-1.013,0.821-1.833,1.833-1.833h21.833C24.92,8.17,25.741,8.991,25.741,10.003L25.741,10.003z"/>
<path fill="#89898A" d="M25.741,17.003c0,1.013-0.821,1.833-1.833,1.833H2.074c-1.013,0-1.833-0.821-1.833-1.833l0,0
	c0-1.013,0.821-1.833,1.833-1.833h21.833C24.92,15.17,25.741,15.991,25.741,17.003L25.741,17.003z"/>
</svg>
