<?xml version="1.0" encoding="UTF-8" standalone="no"?>
<svg width="152px" height="113px" viewBox="0 0 152 113" version="1.1" xmlns="http://www.w3.org/2000/svg" xmlns:xlink="http://www.w3.org/1999/xlink" xmlns:sketch="http://www.bohemiancoding.com/sketch/ns">
    <title>Rectangle 45 + Group + insight copy@2x</title>
    <description>Created with Sketch (http://www.bohemiancoding.com/sketch)</description>
    <defs>
        <linearGradient x1="27.3572664%" y1="0%" x2="87.4324178%" y2="96.4190729%" id="linearGradient-1">
            <stop stop-color="#363C42" offset="0%"></stop>
            <stop stop-color="#363C42" offset="78.5846222%"></stop>
            <stop stop-color="#1F2224" offset="100%"></stop>
        </linearGradient>
        <path id="path-2" d="M17.6600579,6.63519524 C17.6600579,3.15172555 13.7923454,1.28011768e-11 13.7923454,1.28011768e-11 C13.7923454,1.28011768e-11 14.0732112,0.0420027906 13.7923454,1.28011768e-11 C13.2608088,-0.0794900106 10.9319466,0.076665182 7.36641017,1.55972561 C1.91683196,3.82644024 0.403060237,7.12795953 0.403060237,7.12795953 C0.403060237,7.12795953 1.56361889,15.2585664 3.22876746,19.0035735 C4.89391635,22.7485806 8.47650932,26.690693 11.1003804,28.6124728 C13.7242514,30.5342529 15.94445,31.5197798 20.0316336,32.751691 C24.1188173,33.9836013 25.7839662,34.9198528 28.3573781,33.3922843 C30.93079,31.8647159 28.7610505,32.3082033 28.7610505,32.3082033 C28.7610505,32.3082033 28.5087552,33.5401134 25.7839662,30.6328055 C23.059177,27.7254977 21.5454052,24.2761489 20.7885195,22.5021984 C20.0316336,20.728248 17.6600577,11.5135595 17.6600579,6.63519524 C17.6600579,1.756831 17.6600579,6.63519524 17.6600579,6.63519524 Z"></path>
        <mask id="mask-3" sketch:name="Path 21 copy" fill="white">
            <use xlink:href="#path-2"></use>
        </mask>
        <path id="path-4" d="M17.6600579,6.63519524 C17.6600579,3.15172555 12.3033161,0.011814381 12.2382583,0.0171720833 C12.2382583,0.0171720833 13.0773054,-0.0702428487 12.2382583,0.0171720833 C11.4502605,0.0992685225 10.0057077,0.4619279 7.36641017,1.55972561 C1.91683196,3.82644024 0.403060237,7.12795953 0.403060237,7.12795953 C0.403060237,7.12795953 1.56361889,15.2585664 3.22876746,19.0035735 C4.89391635,22.7485806 8.47650932,26.690693 11.1003804,28.6124728 C13.7242514,30.5342529 15.94445,31.5197798 20.0316336,32.751691 C24.1188173,33.9836013 25.7839662,34.9198528 28.3573781,33.3922843 C30.93079,31.8647159 28.7610505,32.3082033 28.7610505,32.3082033 C28.7610505,32.3082033 28.5087552,33.5401134 25.7839662,30.6328055 C23.059177,27.7254977 21.5454052,24.2761489 20.7885195,22.5021984 C20.0316336,20.728248 17.6600577,11.5135595 17.6600579,6.63519524 C17.6600579,1.756831 17.6600579,6.63519524 17.6600579,6.63519524 Z"></path>
        <mask id="mask-5" sketch:name="Path 21 copy" fill="white">
            <use xlink:href="#path-4"></use>
        </mask>
        <radialGradient cx="51.7578125%" cy="14.0877445%" fx="51.7578125%" fy="14.0877445%" r="81.7455888%" id="radialGradient-6">
            <stop stop-color="#8DC429" stop-opacity="0" offset="0%"></stop>
            <stop stop-color="#455920" offset="100%"></stop>
        </radialGradient>
        <path id="path-7" d="M9.67186662,19.8629067 C15.0134913,19.8629067 19.3437332,15.4164438 19.3437332,9.93145333 C19.3437332,4.44646284 15.0134913,7.28306304e-14 9.67186662,7.28306304e-14 C4.33024192,7.28306304e-14 1.42108547e-13,4.44646284 1.42108547e-13,9.93145333 C1.42108547e-13,15.4164438 4.33024192,19.8629067 9.67186662,19.8629067 Z"></path>
        <path id="path-8" d="M13.9735734,7.60899407 C13.9735734,7.60899407 20.0326934,1.48208708 26.6472329,0.287859636 C33.2617722,-0.906367967 37.5031563,2.00131663 37.5031563,2.00131663 C37.5031563,2.00131663 36.8467507,8.18014647 34.2716256,13.7359009 C31.6964996,19.2916553 29.7272856,24.6916396 24.5265408,29.2608597 C19.3257961,33.8300799 13.7716022,34.0377716 12.2568229,33.8820028 C10.7420437,33.7262341 4.73341542,33.6743096 1.35040668,29.5204744 C-2.03260201,25.3666392 2.00681135,26.9762504 2.00681135,26.9762504 L3.42060603,29.001245 C3.42060603,29.001245 6.75312188,31.3377774 8.72233606,28.170478 C10.6915503,25.0031786 11.8528821,20.0185767 12.9132274,14.514745 C13.9735729,9.01091332 13.9735734,7.60899407 13.9735734,7.60899407 Z"></path>
        <path id="path-9" d="M13.9735734,7.60899407 C13.9735734,7.60899407 20.0326934,1.48208708 26.6472329,0.287859636 C33.2617722,-0.906367967 37.5031563,2.00131663 37.5031563,2.00131663 C37.5031563,2.00131663 36.8467507,8.18014647 34.2716256,13.7359009 C31.6964996,19.2916553 29.7272856,24.6916396 24.5265408,29.2608597 C19.3257961,33.8300799 13.7716022,34.0377716 12.2568229,33.8820028 C10.7420437,33.7262341 4.73341542,33.6743096 1.35040668,29.5204744 C-2.03260201,25.3666392 2.00681135,26.9762504 2.00681135,26.9762504 L3.42060603,29.001245 C3.42060603,29.001245 6.75312188,31.3377774 8.72233606,28.170478 C10.6915503,25.0031786 11.8528821,20.0185767 12.9132274,14.514745 C13.9735729,9.01091332 13.9735734,7.60899407 13.9735734,7.60899407 Z"></path>
    </defs>
    <g id="Page-5" stroke="none" stroke-width="1" fill="none" fill-rule="evenodd" sketch:type="MSPage">
        <g id="Artboard-1" sketch:type="MSArtboardGroup" transform="translate(-539.000000, -46.000000)">
            <g id="Rectangle-45-+-Group-+-insight-copy" sketch:type="MSLayerGroup" transform="translate(541.000000, 49.000000)">
                <g id="Group" transform="translate(36.814415, -0.473649)">
                    <g id="Oval-6-+-Oval-6-copy" transform="translate(13.290592, 47.968244)" sketch:type="MSShapeGroup">
                        <g id="Oval-6-+-Oval-6" transform="translate(-0.000000, 0.000000)">
                            <ellipse id="Oval-6" fill="#ECECEC" cx="23.5546139" cy="3.58072807" rx="23.5546139" ry="3.58072807"></ellipse>
                            <ellipse id="Oval-6" fill="#D3D3D3" cx="23.4230239" cy="3.51316716" rx="10.6587918" ry="1.62146177"></ellipse>
                        </g>
                    </g>
                    <g id="Path-21-copy-+-Path-17" transform="translate(38.555876, 0.000000)" stroke="#FFFFFF" fill="url(#linearGradient-1)" sketch:type="MSShapeGroup">
                        <use id="Path-21-copy" transform="translate(14.808023, 17.198328) scale(-1, 1) translate(-14.808023, -17.198328) " xlink:href="#path-2"></use>
                    </g>
                    <g id="Path-21-copy-+-Path-17" transform="translate(22.440244, 17.198328) scale(-1, 1) translate(-22.440244, -17.198328) translate(8.035282, 0.000000)" stroke="#FFFFFF" fill="url(#linearGradient-1)" sketch:type="MSShapeGroup">
                        <use id="Path-21-copy" transform="translate(14.808023, 17.198328) scale(-1, 1) translate(-14.808023, -17.198328) " xlink:href="#path-4"></use>
                    </g>
                    <g id="Oval-71-+-Path-116" transform="translate(27.765495, 3.783411)">
                        <g id="Oval-71">
                            <use stroke="#FFFFFF" stroke-width="1" fill="#8DC429" fill-rule="evenodd" sketch:type="MSShapeGroup" xlink:href="#path-7"></use>
                            <use stroke="none" fill="none" xlink:href="#path-7"></use>
                            <use stroke="none" fill="url(#radialGradient-6)" fill-rule="evenodd" xlink:href="#path-7"></use>
                        </g>
                        <path d="M16.1339379,4.43901238 C16.1339379,4.43901238 14.601049,4.53495536 12.9607819,3.92124075 C11.3205149,3.30752614 10.442142,2.72456774 10.442142,2.72456774 C10.385286,2.68878612 10.379737,2.69741017 10.4298987,2.74308093 C10.4298987,2.74308093 11.6204586,3.87243598 12.9322029,4.46516601 C14.2439473,5.05789612 16.1387615,4.46771268 16.1387615,4.46771268 C16.2030017,4.44943646 16.2008667,4.437049 16.1339379,4.43901238 Z" id="Path-116" fill-opacity="0.3" fill="#FFFFFF" sketch:type="MSShapeGroup" transform="translate(13.290592, 3.715850) rotate(-165.000000) translate(-13.290592, -3.715850) "></path>
                    </g>
                    <g id="Path-17-+-Path-15-copy" transform="translate(18.563762, 23.374589) scale(-1, 1) translate(-18.563762, -23.374589) translate(-0.375632, 6.215603)">
                        <g id="Path-17">
                            <use stroke="#FFFFFF" stroke-width="1" fill="none" sketch:type="MSShapeGroup" xlink:href="#path-8"></use>
                            <use stroke="none" fill="#BCBCBC" fill-rule="evenodd" xlink:href="#path-8"></use>
                        </g>
                        <path d="M13.5537723,10.9448669 C13.5537723,10.9448669 18.6192799,5.88727062 24.4952704,3.61651393 C30.3712601,1.34575685 37.1083862,4.45901969 37.1083862,4.45901969 L37.5031563,2.02682721 C37.5031563,2.02682721 32.8317105,-1.14853547 25.9232343,0.472926347 C19.0147582,2.09438814 13.9590129,7.64194744 13.9590129,7.64194744 L13.5537723,10.9448669 Z" id="Path-15" fill="#C5C5C5" sketch:type="MSShapeGroup"></path>
                    </g>
                    <g id="Path-17-+-Path-15" transform="translate(37.503156, 6.215603)">
                        <g id="Path-17">
                            <use stroke="#FFFFFF" stroke-width="1" fill="none" sketch:type="MSShapeGroup" xlink:href="#path-9"></use>
                            <use stroke="none" fill="#BCBCBC" fill-rule="evenodd" xlink:href="#path-9"></use>
                        </g>
                        <path d="M13.5537723,10.9448669 C13.5537723,10.9448669 18.6192799,5.88727062 24.4952704,3.61651393 C30.3712601,1.34575685 37.1083862,4.45901967 37.1083862,4.45901967 L37.5031563,2.02682717 C37.5031563,2.02682717 36.148078,1.11852104 33.8506222,0.521560559 C31.8524397,0.00236187655 29.1414026,-0.281321678 25.9890293,0.472926333 C19.2121431,2.09438803 13.9590129,7.64194744 13.9590129,7.64194744 L13.5537723,10.9448669 Z" id="Path-15" fill="#C5C5C5" sketch:type="MSShapeGroup"></path>
                    </g>
                    <path d="M37.2399762,36.7531334 C40.219658,36.7531334 42.6351671,35.5734596 42.6351671,34.118258 C42.6351671,32.6630565 40.219658,31.4833827 37.2399762,31.4833827 C34.2602944,31.4833827 31.8447853,32.6630565 31.8447853,34.118258 C31.8447853,35.5734596 34.2602944,36.7531334 37.2399762,36.7531334 Z" id="Oval-76" stroke="#FFFFFF" fill="#1F2224" sketch:type="MSShapeGroup"></path>
                </g>
                <text id="insight" fill="#373D42" sketch:type="MSTextLayer" font-family="Ubuntu" font-size="44.69263" font-style="italic" font-weight="bold">
                    <tspan x="0.386406713" y="97.0583739">insight</tspan>
                </text>
            </g>
        </g>
    </g>
</svg>